<mxfile host="app.diagrams.net" modified="2023-05-22T06:50:56.837Z" agent="Mozilla/5.0 (Macintosh; Intel Mac OS X 10_15_7) AppleWebKit/605.1.15 (KHTML, like Gecko) Version/16.3 Safari/605.1.15" version="21.3.2" etag="GO-tzwuIHNGbF8Yj6Nm9" type="github">
  <diagram name="Page-1" id="51c_QI4XdemxKFMF1dME">
    <mxGraphModel>
      <root>
        <mxCell id="0" />
        <mxCell id="1" parent="0" />
      </root>
    </mxGraphModel>
  </diagram>
</mxfile>
